<svg xmlns="http://www.w3.org/2000/svg" viewBox="0 0 120 120"><defs><style>.cls-1{fill:#00755d;}.cls-2{fill:#fcffff;}.cls-3{font-size:28.21px;fill:#fff;font-family:S-CoreDream-7ExtraBold, S-Core Dream;font-weight:700;}</style></defs><title>글씨</title><g id="레이어_2" data-name="레이어 2"><g id="레이어_1-2" data-name="레이어 1"><rect class="cls-1" width="120" height="120"/><path class="cls-2" d="M97.23,12.75a10.53,10.53,0,0,1,10.52,10.52V95.1a10.54,10.54,0,0,1-10.52,10.53H25.4A10.53,10.53,0,0,1,14.88,95.1V23.27A10.53,10.53,0,0,1,25.4,12.75H97.23m0-2H25.4A12.55,12.55,0,0,0,12.88,23.27V95.1A12.56,12.56,0,0,0,25.4,107.63H97.23A12.56,12.56,0,0,0,109.75,95.1V23.27A12.55,12.55,0,0,0,97.23,10.75Z"/><rect class="cls-1" x="23" width="97" height="93.5"/><text class="cls-3" transform="translate(42.67 42.99)">충북<tspan x="0" y="33.85">학사</tspan></text></g></g></svg>